<?xml version="1.0" encoding="UTF-8"?>
<svg id="Ebene_1" data-name="Ebene 1" xmlns="http://www.w3.org/2000/svg" viewBox="0 0 648.5 535.002">
  <defs>
    <style>
      .cls-1 {
        fill: #17ae69;
      }
    </style>
  </defs>
  <path class="cls-1" d="m648.5,157.502C648.5,70.768,578.031.184,491.337,0H157.337v.002C70.564.089,0,70.71,0,157.502s70.654,157.5,157.5,157.5l73.5-.008v.008c34.463,0,62.5,28.037,62.5,62.5s-28.038,62.5-62.5,62.5H95.031v95h136c86.832-.018,157.47-70.665,157.47-157.5s-70.47-157.319-157.163-157.5l-74-.008v.007c-34.388-.088-62.337-28.091-62.337-62.5s28.038-62.5,62.5-62.5v-.002l333.5.002c34.463,0,62.5,28.038,62.5,62.5s-28.032,62.495-62.49,62.5h-159.159c34.641,22.228,61.456,55.576,75.434,95h84.144v-.005c86.649-.233,157.071-70.792,157.071-157.495Z"/>
</svg>